# xmcd
#
# Track frame offsets: 
#        150
#        9962
#        18119
#        28246
#        40870
#        53401
#        67006
#        81450
#        94544
#        109140
#        120292
#        131691
#        144834
#        154563
#
# Disc length: 2220 seconds
#
# Revision: 1
# Processed by: cddbd v1.5.2PL0 Copyright (c) Steve Scherf et al.
# Submitted via: ExactAudioCopy v1.1
#
DISCID=a308aa0e
DTITLE=Sagittarius - The Blue Marble
DYEAR=1969
DGENRE=Pop
TTITLE0=In My Room (stereo)
TTITLE1=From You Unto Us (stereo)
TTITLE2=Will You Ever See Me? (stereo)
TTITLE3=Glayds (stereo)
TTITLE4=I Sing My Song (stereo)
TTITLE5=The Blue Marble (stereo)
TTITLE6=Lend Me A Smile (stereo)
TTITLE7=I Can Still See Your Face (stereo)
TTITLE8=I See In You (stereo)
TTITLE9=Cloud Talk (stereo)
TTITLE10=I Guess The Lord Is In New York City (mono single version)
TTITLE11=I Can Still See Your Face (mono single version)
TTITLE12=In My Room (mono single version)
TTITLE13=Navajo Girl (mono single version)
EXTD=
EXTT0=
EXTT1=
EXTT2=
EXTT3=
EXTT4=
EXTT5=
EXTT6=
EXTT7=
EXTT8=
EXTT9=
EXTT10=
EXTT11=
EXTT12=
EXTT13=
PLAYORDER=
